#format: frame checksums
#version: 2
#hash: MD5
#tb 0: 1/15
#media_type 0: video
#codec_id 0: rawvideo
#dimensions 0: 1920x1080
#sar 0: 0/1
#stream#, dts,        pts, duration,     size, hash
0,          0,          0,        1,  3110400, c88154281ada839d3f209b0eab012577
0,          1,          1,        1,  3110400, a2623ba4639cf246b803c08e7233112f
0,          2,          2,        1,  3110400, 9208fcdb16664e91ada77d15cc29ace9
0,          3,          3,        1,  3110400, 62a5afb0c4d189b831c8cca033a396e0
0,          4,          4,        1,  3110400, a8f208f1323e9c14181549d480055e3c
0,          5,          5,        1,  3110400, 3a66c0ab75362a73eebb9ef668bee3da
0,          6,          6,        1,  3110400, 8096734441fe76d8f7bba8384029b1be
0,          7,          7,        1,  3110400, ee8db0610de85f015ec76a0c14475ab8
0,          8,          8,        1,  3110400, f52df359246a4ac396dfc74f75285347
0,          9,          9,        1,  3110400, 8fb6ddd74e4b71c7596e90d47e50d8f1
0,         10,         10,        1,  3110400, 70542a3ac5df77437c3d8097d19315c2
0,         11,         11,        1,  3110400, 20bdf9399f6752578c574248627c3a9f
0,         12,         12,        1,  3110400, a8b564575af5d72a2cc6d566e99e0176
0,         13,         13,        1,  3110400, 0d4ace74eb6b452ea9cb2cc72371794a
0,         14,         14,        1,  3110400, d9736a1e47da6541306cbf8496d97635
0,         15,         15,        1,  3110400, 49bc2b608000c7d545fa362418035277
0,         16,         16,        1,  3110400, bd64e9d545c666f818ea1af791ac4201
0,         17,         17,        1,  3110400, 75b86260724937fdeddf47e1f28530a1
0,         18,         18,        1,  3110400, 7df76be996e2c652da048e690e45313f
0,         19,         19,        1,  3110400, 057b9a27f76c9205fe7f378c7e4fe1b4
0,         20,         20,        1,  3110400, 08241ea9c8d27bd14117ca07485a9892
0,         21,         21,        1,  3110400, 7d5f4d4e043d6f3e794d1222046cb9cf
0,         22,         22,        1,  3110400, dfb6916da415ff5323a1925cc329c8e2
0,         23,         23,        1,  3110400, 574730243f89b4824a313ea1b690e31b
0,         24,         24,        1,  3110400, 63054e31f52171dda84faa201523dc3b
0,         25,         25,        1,  3110400, d8ba349a9a5a6f38527e47f5519fd335
0,         26,         26,        1,  3110400, e653543eb8a8a49147676a91bafbdec8
0,         27,         27,        1,  3110400, b3194aced03ff1bc4d65560792eeab98
0,         28,         28,        1,  3110400, 6ba07b8fd8422b3c14976062f5468fab
0,         29,         29,        1,  3110400, bf8359596ddfd9fdbc243fc2fee56669
